<defs>
<font horiz-adv-x="343" ><font-face
    font-family="web-serveroff"
    units-per-em="1000"
    panose-1="0 0 0 0 0 0 0 0 0 0"
    ascent="750"
    descent="-250"
    alphabetic="0" />
<missing-glyph horiz-adv-x="350" />
<glyph unicode=" " glyph-name="space" horiz-adv-x="350" />
<glyph unicode="!" glyph-name="exclam" horiz-adv-x="140" d="M87 694V194H52V694H87ZM87 112V0H52V112H87Z" />
<glyph unicode="&quot;" glyph-name="quotedbl" horiz-adv-x="230" d="M87 742V562H52V742H87ZM174 742V562H140V742H174Z" />
<glyph unicode="#" glyph-name="numbersign" horiz-adv-x="448" d="M86 -7L52 2L118 252H53V287H128L160 407H92V442H169L238 701L273 693L206 442H285L354 701L389 693L322 442H388V407H312L280 287H350V252H271L202 -7L168 2L234 252H155L86 -7ZM196 407L164
287H244L276 407H196Z" />
<glyph unicode="$" glyph-name="dollar" horiz-adv-x="420" d="M224 -97H189V-9Q120 -6 54 15V51Q129 28 189 25V331Q163 334 143 341T101 363T67 409T54 483V550Q54 620 91 658T189 702V791H224V703Q281 700 341 685V648Q271 666 224 669V362Q360 348 360 211V143Q360
74 323 36T224 -9V-97ZM325 211Q325 315 224 327V26Q269 30 297 59T325 143V211ZM89 483Q89 380 189 366V668Q144 663 117 634T89 550V483Z" />
<glyph unicode="%" glyph-name="percent" horiz-adv-x="470" d="M81 -12L52 5L379 705L409 690L81 -12ZM44 420V623Q44 662 66 682T125 703Q160 703 182 683T205 623V420Q205 379 183 359T125 339Q89 339 67 359T44 420ZM79 623V420Q79 398 92 386T125 374T157
386T170 420V623Q170 645 158 657T125 669T92 657T79 623ZM258 71V274Q258 313 280 334T338 355T396 334T419 274V71Q419 31 396 11T338 -10T281 10T258 71ZM293 274V71Q293 49 305 37T338 25T371 37T384 71V274Q384 296 371 308T338 320T306 308T293 274Z" />
<glyph unicode="&amp;" glyph-name="ampersand" horiz-adv-x="490" d="M458 364V329H361V143Q361 67 323 29T215 -10Q145 -10 100 29T55 143V211Q55 320 145 347Q55 372 55 483V550Q55 625 97 664T208 703Q275 703 341 679V641Q268 669 208 669Q155 669 122 640T89
550V483Q89 364 215 364H458ZM215 25Q326 25 326 143V329H215Q89 329 89 211V143Q89 84 124 55T215 25Z" />
<glyph unicode="&apos;" glyph-name="quotesingle" horiz-adv-x="140" d="M87 742V562H52V742H87Z" />
<glyph unicode="(" glyph-name="parenleft" horiz-adv-x="220" d="M194 -72V-107Q127 -107 90 -61T52 66V628Q52 707 89 753T194 800V766Q142 766 115 729T87 628V66Q87 2 114 -35T194 -72Z" />
<glyph unicode=")" glyph-name="parenright" horiz-adv-x="220" d="M23 -107V-72Q75 -72 102 -35T130 66V628Q130 692 103 729T23 766V800Q90 800 127 754T164 628V66Q164 -14 127 -60T23 -107Z" />
<glyph unicode="*" glyph-name="asterisk" horiz-adv-x="336" d="M148 694H183V599L261 654L281 624L197 565L281 506L261 476L183 530V436H148V530L70 476L50 506L134 565L49 625L70 654L148 599V694Z" />
<glyph unicode="+" glyph-name="plus" horiz-adv-x="370" d="M165 476H200V364H311V329H200V218H165V329H53V364H165V476Z" />
<glyph unicode="," glyph-name="comma" horiz-adv-x="160" d="M71 0H52V93H106V8Q106 -54 82 -126H44Q68 -61 71 0Z" />
<glyph unicode="-" glyph-name="hyphen" horiz-adv-x="370" d="M311 364V329H53V364H311Z" />
<glyph unicode="." glyph-name="period" horiz-adv-x="160" d="M106 93V0H52V93H106Z" />
<glyph unicode="/" glyph-name="slash" horiz-adv-x="408" d="M52 -12L23 5L349 705L379 690L52 -12Z" />
<glyph unicode="0" glyph-name="zero" horiz-adv-x="420" d="M54 143V550Q54 625 97 664T207 703T317 664T360 550V143Q360 68 317 29T207 -10T97 29T54 143ZM325 143V550Q325 552 325 555T324 561L101 81Q130 25 207 25Q260 25 292 54T325 143ZM89 143V134L311
613Q284 669 207 669Q154 669 122 640T89 550V143Z" />
<glyph unicode="1" glyph-name="one" horiz-adv-x="180" d="M106 700V0H71V665H3V700H106Z" />
<glyph unicode="2" glyph-name="two" horiz-adv-x="420" d="M207 703Q274 703 317 664T360 550V483Q360 436 346 404T305 357T257 337T208 329Q186 327 171 324T134 309T101 273T89 211V35H360V0H54V211Q54 249 65 277T90 321T128 346T168 359T206 364Q229 366
244 370T280 385T313 421T325 483V550Q325 610 293 639T207 669Q148 669 73 641V679Q141 703 207 703Z" />
<glyph unicode="3" glyph-name="three" horiz-adv-x="420" d="M207 25Q260 25 292 54T325 143V289Q325 348 290 377T199 407V442Q202 442 208 442T218 441L318 665H54V700H360V672L253 435Q302 422 331 385T360 289V143Q360 68 317 29T207 -10Q143 -10 73 15V52Q149
25 207 25Z" />
<glyph unicode="4" glyph-name="four" horiz-adv-x="441" d="M352 267H410V233H352V0H317V233H54V252H51L54 261V267H55L188 694H226L93 267H317V500H352V267Z" />
<glyph unicode="5" glyph-name="five" horiz-adv-x="420" d="M108 281H73L93 694H350V659H128L113 383Q142 442 207 442Q274 442 317 403T360 289V143Q360 68 317 29T207 -10Q143 -10 73 15V52Q149 25 207 25Q260 25 292 54T325 143V289Q325 348 293 377T207 407Q171
407 143 380T109 300Q108 294 108 281Z" />
<glyph unicode="6" glyph-name="six" horiz-adv-x="420" d="M207 442Q274 442 317 403T360 289V151Q360 72 317 31T207 -10T97 29T54 143V550Q54 625 97 664T207 703T341 679V641Q266 669 207 669Q154 669 122 640T89 550V409Q164 442 207 442ZM325 151V289Q325
348 293 377T207 407Q155 407 89 385V143Q89 84 121 55T207 25T292 56T325 151Z" />
<glyph unicode="7" glyph-name="seven" horiz-adv-x="420" d="M147 0H109L312 665H34V700H352V671L147 0Z" />
<glyph unicode="8" glyph-name="eight" horiz-adv-x="420" d="M206 -10Q138 -10 96 30T54 143V211Q54 313 132 346Q54 381 54 483V550Q54 622 96 662T206 703Q275 703 317 663T360 550V483Q360 381 282 346Q360 313 360 211V143Q360 71 318 31T206 -10ZM325 550Q325
608 292 638T207 669T122 639T89 550V483Q89 430 121 397T206 364Q257 364 291 396T325 483V550ZM208 328Q158 328 124 302T89 211V143Q89 85 122 55T207 25T292 55T325 143V211Q325 275 291 301T208 328Z" />
<glyph unicode="9" glyph-name="nine" horiz-adv-x="420" d="M207 25Q260 25 292 54T325 143V284Q246 252 207 252Q140 252 97 291T54 405V543Q54 622 97 662T207 703T317 664T360 550V143Q360 68 317 29T207 -10Q143 -10 73 15V52Q149 25 207 25ZM207 287Q259
287 325 309V550Q325 610 293 639T207 669T122 638T89 543V405Q89 346 121 317T207 287Z" />
<glyph unicode=":" glyph-name="colon" horiz-adv-x="160" d="M106 93V0H52V93H106ZM106 364V271H52V364H106Z" />
<glyph unicode=";" glyph-name="semicolon" horiz-adv-x="160" d="M106 364V271H52V364H106ZM71 0H52V93H106V8Q106 -54 82 -126H44Q68 -61 71 0Z" />
<glyph unicode="&lt;" glyph-name="less" horiz-adv-x="311" d="M49 347L232 530L257 505L99 347L257 189L232 164L49 347Z" />
<glyph unicode="=" glyph-name="equal" horiz-adv-x="370" d="M311 403V368H53V403H311ZM311 326V291H53V326H311Z" />
<glyph unicode="&gt;" glyph-name="greater" horiz-adv-x="311" d="M49 505L74 530L257 347L74 164L49 189L207 347L49 505Z" />
<glyph unicode="?" glyph-name="question" horiz-adv-x="400" d="M187 703Q255 703 297 664T340 550V483Q340 439 329 409T298 363T265 342T234 331L225 329Q215 327 205 322T180 304T156 268T147 211V155H112V211Q112 254 124 285T157 332T191 353T219 363L217
362L232 367Q246 371 255 375T278 391T299 426T306 483V550Q306 610 273 639T187 669Q127 669 54 641V679Q120 703 187 703ZM147 93V0H112V93H147Z" />
<glyph unicode="@" glyph-name="at" horiz-adv-x="390" d="M345 357V170Q345 144 329 130T288 116Q253 116 237 141Q221 116 192 116Q160 116 139 135T118 189V310Q118 347 138 365T192 384Q214 384 230 368V374H265V170Q265 151 288 151Q310 151 310 170V357Q310
416 278 445T192 475T107 446T74 357V143Q74 84 106 55T192 25Q250 25 326 52V15Q256 -10 192 -10Q125 -10 82 29T39 143V357Q39 432 82 471T192 510T302 471T345 357ZM192 151Q227 151 230 185V314Q227 349 192 349Q175 349 164 339T153 310V189Q153 151 192 151Z"
/>
<glyph unicode="A" glyph-name="A" horiz-adv-x="420" d="M392 0H354L315 166H99L59 0H22L190 700H225L392 0ZM208 620L107 201H306L208 620Z" />
<glyph unicode="B" glyph-name="B" horiz-adv-x="410" d="M190 0H53V700H190Q261 700 306 661T352 546V487Q352 383 272 350Q352 317 352 213V154Q352 79 307 40T190 0ZM190 35Q247 35 282 64T317 154V213Q317 244 308 266T286 300T254 319T222 328T190 332H88V35H190ZM317
546Q317 606 282 635T190 665H88V368H190Q210 370 221 371T253 380T286 399T307 433T317 487V546Z" />
<glyph unicode="C" glyph-name="C" horiz-adv-x="380" d="M208 710Q273 710 343 685V647Q268 675 208 675Q154 675 121 645T88 555V145Q88 85 121 55T208 25Q268 25 343 53V15Q273 -10 208 -10Q140 -10 97 29T53 145V555Q53 631 96 670T208 710Z" />
<glyph unicode="D" glyph-name="D" horiz-adv-x="410" d="M198 0H53V700H198Q266 700 309 661T352 546V154Q352 79 309 40T198 0ZM317 154V546Q317 606 284 635T198 665H88V35H198Q251 35 284 64T317 154Z" />
<glyph unicode="E" glyph-name="E" horiz-adv-x="350" d="M323 0H53V700H323V665H88V368H294V332H88V35H323V0Z" />
<glyph unicode="F" glyph-name="F" horiz-adv-x="350" d="M88 0H53V700H323V665H88V368H294V332H88V0Z" />
<glyph unicode="G" glyph-name="G" horiz-adv-x="420" d="M208 25Q263 25 327 41V332H200V368H362V15Q282 -10 208 -10Q140 -10 97 29T53 145V555Q53 631 96 670T208 710Q270 710 343 691V654Q265 675 208 675Q154 675 121 645T88 555V145Q88 85 121 55T208 25Z" />
<glyph unicode="H" glyph-name="H" horiz-adv-x="410" d="M352 0H317V332H88V0H53V700H88V368H317V700H352V0Z" />
<glyph unicode="I" glyph-name="I" horiz-adv-x="140" d="M87 0H52V700H87V0Z" />
<glyph unicode="J" glyph-name="J" horiz-adv-x="370" d="M158 25Q212 25 245 55T278 145V700H313V145Q313 69 270 30T158 -10Q93 -10 24 15V53Q97 25 158 25Z" />
<glyph unicode="K" glyph-name="K" horiz-adv-x="410" d="M390 0H352L197 332H89V0H53V700H89V368H197L351 700H389L226 350L390 0Z" />
<glyph unicode="L" glyph-name="L" horiz-adv-x="350" d="M323 0H53V700H88V35H323V0Z" />
<glyph unicode="M" glyph-name="M" horiz-adv-x="535" d="M87 0H52V697L51 700H89L266 223L440 700H479L477 694V0H442V599L283 166H250L87 603V0Z" />
<glyph unicode="N" glyph-name="N" horiz-adv-x="410" d="M352 0H320L88 592V0H53V700H86L317 108V700H352V0Z" />
<glyph unicode="O" glyph-name="O" horiz-adv-x="420" d="M53 145V555Q53 631 96 670T208 710T319 671T362 555V145Q362 69 319 30T208 -10T97 29T53 145ZM327 145V555Q327 615 294 645T208 675Q154 675 121 645T88 555V145Q88 85 121 55T208 25Q261 25 294 55T327 145Z" />
<glyph unicode="P" glyph-name="P" horiz-adv-x="390" d="M88 0H53V700H190Q261 700 306 661T352 546V409Q352 370 341 341T313 296T273 270T231 257T190 254H88V0ZM190 289Q317 289 317 409V546Q317 606 282 635T190 665H88V289H190Z" />
<glyph unicode="Q" glyph-name="Q" horiz-adv-x="420" d="M351 -98H313L267 0Q237 -10 208 -10Q140 -10 97 29T53 145V555Q53 631 96 670T208 710T319 671T362 555V145Q362 54 299 14L351 -98ZM327 145V555Q327 615 294 645T208 675Q154 675 121 645T88 555V145Q88
85 121 55T208 25Q231 25 252 31L196 153H234L283 46Q327 77 327 145Z" />
<glyph unicode="R" glyph-name="R" horiz-adv-x="410" d="M89 0H53V700H190Q262 700 307 661T353 546V409Q353 292 254 262L376 0H338L219 255Q209 254 190 254H89V0ZM190 289Q317 289 317 409V546Q317 606 282 635T190 665H89V289H190Z" />
<glyph unicode="S" glyph-name="S" horiz-adv-x="420" d="M343 691V654Q265 675 208 675Q154 675 121 645T88 555V487Q88 456 97 434T117 400T148 381T179 372T209 368Q231 366 247 363T287 350T325 325T351 281T362 213V145Q362 69 319 30T208 -10Q133 -10 53
15V52Q136 25 208 25Q261 25 294 55T327 145V213Q327 244 318 266T298 300T267 319T237 328T207 332Q185 334 169 337T129 350T90 375T64 419T53 487V555Q53 631 96 670T208 710Q270 710 343 691Z" />
<glyph unicode="T" glyph-name="T" horiz-adv-x="360" d="M196 0H161V665H24V700H333V665H196V0Z" />
<glyph unicode="U" glyph-name="U" horiz-adv-x="410" d="M317 145V700H352V145Q352 68 312 29T203 -10T94 29T53 145V700H88V145Q88 85 119 55T203 25T286 55T317 145Z" />
<glyph unicode="V" glyph-name="V" horiz-adv-x="420" d="M225 0H190L22 700H59L208 81L354 700H392L225 0Z" />
<glyph unicode="W" glyph-name="W" horiz-adv-x="592" d="M418 0H383L294 444L207 0H172L23 700H60L189 88Q236 322 277 535H310L400 88Q409 131 456 356T527 700H565L418 0Z" />
<glyph unicode="X" glyph-name="X" horiz-adv-x="420" d="M390 0H351L208 309L64 0H26L189 350L25 700H63L208 390L350 700H389L226 350L390 0Z" />
<glyph unicode="Y" glyph-name="Y" horiz-adv-x="420" d="M225 0H190V253L21 700H58L208 305L355 700H393L225 251V0Z" />
<glyph unicode="Z" glyph-name="Z" horiz-adv-x="420" d="M354 0H53V28L313 665H53V700H354V672L94 35H354V0Z" />
<glyph unicode="[" glyph-name="bracketleft" horiz-adv-x="240" d="M204 -97H53V791H204V756H87V-62H204V-97Z" />
<glyph unicode="\" glyph-name="backslash" horiz-adv-x="408" d="M379 4L350 -12L23 690L53 705L379 4Z" />
<glyph unicode="]" glyph-name="bracketright" horiz-adv-x="240" d="M184 -97H33V-62H149V756H33V791H184V-97Z" />
<glyph unicode="^" glyph-name="asciicircum" horiz-adv-x="474" d="M76 538L50 563L233 746L259 721L258 720L417 563L391 538L233 695L76 538Z" />
<glyph unicode="_" glyph-name="underscore" horiz-adv-x="370" d="M361 -207V-242H5V-207H361Z" />
<glyph unicode="`" glyph-name="grave" horiz-adv-x="296" d="M71 711L243 591L220 562L49 682L71 711Z" />
<glyph unicode="a" glyph-name="a" horiz-adv-x="390" d="M53 129H54V168Q54 237 92 271T192 306H296V371Q296 422 267 448T194 475Q148 475 73 448V485Q143 510 195 510Q254 510 292 475T331 371V0H296V14Q226 -10 192 -10Q131 -10 92 25T53 129ZM192 25Q239
25 296 42V271H192Q146 271 117 245T88 168V129Q88 77 117 51T192 25Z" />
<glyph unicode="b" glyph-name="b" horiz-adv-x="390" d="M88 750V483Q155 510 192 510Q253 510 292 475T331 371V129Q331 60 292 25T192 -10Q152 -10 88 16V0H54V750H88ZM192 25Q238 25 267 51T296 129V371Q296 423 267 449T192 475Q144 475 88 457V42Q145 25 192 25Z" />
<glyph unicode="c" glyph-name="c" horiz-adv-x="370" d="M192 475Q146 475 117 449T88 371V129Q88 77 117 51T192 25Q236 25 311 52V15Q242 -10 192 -10Q131 -10 92 25T53 129V371Q53 440 92 475T192 510Q242 510 311 485V448Q236 475 192 475Z" />
<glyph unicode="d" glyph-name="d" horiz-adv-x="390" d="M331 0H296V13Q229 -10 192 -10Q131 -10 93 25T54 129V371Q54 440 92 475T192 510Q231 510 296 486V750H331V0ZM192 475Q146 475 117 449T88 371V129Q88 77 117 51T192 25Q239 25 296 42V457Q241 475 192 475Z" />
<glyph unicode="e" glyph-name="e" horiz-adv-x="390" d="M296 267V371Q296 423 267 449T192 475T117 449T88 371V267H296ZM192 25Q236 25 311 52V15Q242 -10 192 -10Q131 -10 93 25T54 129V371Q54 440 92 475T192 510T292 475T331 371V233H88V129Q88 77 117 51T192 25Z" />
<glyph unicode="f" glyph-name="f" horiz-adv-x="290" d="M101 465H24V500H101V579Q101 648 142 682T248 717V683Q199 683 168 657T136 579V500H262V465H136V0H101V465Z" />
<glyph unicode="g" glyph-name="g" horiz-adv-x="390" d="M192 -217Q238 -217 267 -191T296 -113V13Q229 -10 192 -10Q131 -10 93 25T54 129V371Q54 440 92 475T192 510Q231 510 296 486V500H331V-113Q331 -182 292 -217T192 -252Q130 -252 58 -228V-190Q134 -217
192 -217ZM192 475Q146 475 117 449T88 371V129Q88 77 117 51T192 25Q239 25 296 42V457Q241 475 192 475Z" />
<glyph unicode="h" glyph-name="h" horiz-adv-x="390" d="M88 0H54V750H88V486Q151 510 192 510Q253 510 292 475T331 371V0H296V371Q296 423 267 449T192 475Q144 475 88 457V0Z" />
<glyph unicode="i" glyph-name="i" horiz-adv-x="140" d="M87 500V0H52V500H87ZM87 700V581H52V700H87Z" />
<glyph unicode="j" glyph-name="j" horiz-adv-x="140" d="M86 700V581H51V700H86ZM51 -113V500H86V-113Q86 -182 45 -217T-61 -252V-217Q-12 -217 19 -191T51 -113Z" />
<glyph unicode="k" glyph-name="k" horiz-adv-x="368" d="M333 0H295L187 233H88V0H54V750H88V267H187L294 500H332L215 250L333 0Z" />
<glyph unicode="l" glyph-name="l" horiz-adv-x="140" d="M87 750V0H52V750H87Z" />
<glyph unicode="m" glyph-name="m" horiz-adv-x="580" d="M393 510Q446 509 481 477T516 386V0H481V386Q481 430 456 452T393 475Q345 475 285 456Q303 427 303 386V0H268V386Q268 430 243 452T180 475Q141 475 90 459V0H55V500H90V484Q153 510 180 510Q236 510
271 475Q353 510 393 510Z" />
<glyph unicode="n" glyph-name="n" horiz-adv-x="390" d="M192 510Q253 510 292 475T331 371V0H296V371Q296 423 267 449T192 475Q144 475 88 457V0H54V500H88V483Q155 510 192 510Z" />
<glyph unicode="o" glyph-name="o" horiz-adv-x="390" d="M331 371V129Q331 60 292 25T192 -10T93 25T54 129V371Q54 440 92 475T192 510T292 475T331 371ZM296 129V371Q296 423 267 449T192 475T117 449T88 371V129Q88 77 117 51T192 25T267 51T296 129Z" />
<glyph unicode="p" glyph-name="p" horiz-adv-x="390" d="M192 -10Q153 -10 88 13V-242H54V500H88V486Q151 510 192 510Q253 510 292 475T331 371V129Q331 60 292 25T192 -10ZM192 475Q144 475 88 457V42Q145 25 192 25Q238 25 267 51T296 129V371Q296 423 267
449T192 475Z" />
<glyph unicode="q" glyph-name="q" horiz-adv-x="390" d="M296 -242V13Q229 -10 192 -10Q131 -10 93 25T54 129V371Q54 440 92 475T192 510Q231 510 296 486V500H331V-242H296ZM192 475Q146 475 117 449T88 371V129Q88 77 117 51T192 25Q239 25 296 42V457Q241
475 192 475Z" />
<glyph unicode="r" glyph-name="r" horiz-adv-x="205" d="M192 510V475Q142 475 87 457V0H53V500H87V483Q154 510 192 510Z" />
<glyph unicode="s" glyph-name="s" horiz-adv-x="390" d="M192 25Q238 25 267 51T296 132Q296 162 287 182T259 213T226 227T191 233Q164 235 144 240T102 259T67 300T54 368Q54 439 92 474T192 510Q242 510 311 485V448Q236 475 192 475Q146 475 117 449T88 368Q88
338 97 318T125 287T158 273T193 267Q220 265 240 260T283 241T318 200T331 132Q331 61 293 26T192 -10Q128 -10 58 15V52Q134 25 192 25Z" />
<glyph unicode="t" glyph-name="t" horiz-adv-x="280" d="M24 500H91V597H126V500H252V465H126V129Q126 77 157 51T238 25V-10Q173 -10 132 25T91 129V465H24V500Z" />
<glyph unicode="u" glyph-name="u" horiz-adv-x="390" d="M331 0H296V16Q230 -10 192 -10Q131 -10 93 25T54 129V500H88V129Q88 77 117 51T192 25Q239 25 296 42V500H331V0Z" />
<glyph unicode="v" glyph-name="v" horiz-adv-x="320" d="M174 0H141L2 500H38L158 75L277 500H314L174 0Z" />
<glyph unicode="w" glyph-name="w" horiz-adv-x="496" d="M366 0H332L244 291Q233 255 203 154T158 0H124L4 500H41L143 72L229 364H260L348 74L448 500H485L366 0Z" />
<glyph unicode="x" glyph-name="x" horiz-adv-x="356" d="M58 500L175 286L292 500H331L194 250L332 0H293L175 214L58 0H18L155 250L18 500H58Z" />
<glyph unicode="y" glyph-name="y" horiz-adv-x="390" d="M192 -217Q238 -217 267 -191T296 -113V16Q230 -10 192 -10Q131 -10 93 25T54 129V500H88V129Q88 77 117 51T192 25Q239 25 296 42V500H331V-113Q331 -182 292 -217T192 -252Q130 -252 58 -228V-190Q134
-217 192 -217Z" />
<glyph unicode="z" glyph-name="z" horiz-adv-x="390" d="M331 0H54V29L289 465H54V500H331V471L95 35H331V0Z" />
<glyph unicode="{" glyph-name="braceleft" d="M178 226V66Q178 2 205 -35T285 -72V-107Q218 -107 181 -61T143 66V218Q143 253 118 278L49 347L118 416Q143 441 143 476V628Q143 707 180 753T285 800V766Q233 766 206 729T178 628V468Q178 426 149 396L100 347L149
297Q178 268 178 226Z" />
<glyph unicode="|" glyph-name="bar" horiz-adv-x="140" d="M87 -97H52V791H87V-97Z" />
<glyph unicode="}" glyph-name="braceright" d="M160 66V226Q160 268 189 297L238 347L189 396Q160 426 160 468V628Q160 692 133 729T53 766V800Q120 800 157 754T195 628V476Q195 440 220 416L289 347L220 278Q195 254 195 218V66Q195 -14 158 -60T53 -107V-72Q105
-72 132 -35T160 66Z" />
<glyph unicode="~" glyph-name="asciitilde" horiz-adv-x="408" d="M140 374Q89 374 89 292H54Q54 353 78 381T140 409Q155 409 169 400T190 384T212 359Q242 322 262 322Q313 322 313 404H348Q348 343 324 315T262 287Q223 287 179 342Q151 374 140 374Z" />
<glyph unicode="&#xa1;" glyph-name="exclamdown" horiz-adv-x="140" d="M87 306V-194H52V306H87ZM87 500V388H52V500H87Z" />
<glyph unicode="&#xa2;" glyph-name="cent" horiz-adv-x="370" d="M209 -97H175V-9Q120 -4 87 30T53 129V371Q53 435 86 469T175 509V597H209V509Q251 506 311 485V448Q254 469 209 474V26Q254 31 311 52V15Q257 -4 209 -9V-97ZM88 129Q88 82 111 57T175 26V474Q135
469 112 444T88 371V129Z" />
<glyph unicode="&#xa3;" glyph-name="sterling" horiz-adv-x="440" d="M283 364V329H137V35H409V0H102V329H25V364H102V550Q102 625 145 664T256 703Q323 703 389 679V641Q316 669 256 669Q203 669 170 640T137 550V364H283Z" />
<glyph unicode="&#xa4;" glyph-name="currency" horiz-adv-x="310" d="M49 425L74 451L113 412Q128 422 153 422T192 412L231 451L256 425L218 387Q228 365 228 347Q228 325 218 308L256 268L231 243L192 282Q172 271 153 271Q130 271 113 282L74 243L49 268L88
307Q77 324 77 347Q77 365 88 387L49 425ZM112 364T112 347T123 318T153 306Q170 306 181 318T193 347T182 376T153 388Q135 388 124 376Z" />
<glyph unicode="&#xa5;" glyph-name="yen" horiz-adv-x="420" d="M224 0H189V97H78V132H189V213H78V248H189V252L22 694H59L207 302L353 694H390L224 249V248H336V213H224V132H336V97H224V0Z" />
<glyph unicode="&#xa6;" glyph-name="brokenbar" horiz-adv-x="140" d="M87 306V-97H52V306H87ZM87 388H52V791H87V388Z" />
<glyph unicode="&#xa7;" glyph-name="section" horiz-adv-x="390" d="M192 5Q238 5 267 31T296 111Q296 141 287 162T259 192T227 206T191 212H184V213Q158 216 139 221T99 241T66 282T54 348Q54 437 118 471Q54 500 54 590Q54 661 92 696T192 732Q242 732 311
707V670Q236 697 192 697Q146 697 117 671T88 590Q88 560 97 540T125 509T158 495T193 489H200V488Q220 486 236 483T270 470T301 447T322 409T331 354Q331 265 265 230Q331 199 331 111Q331 40 293 5T192 -30T58 -6V32Q134 5 192 5ZM296 354Q296 445 194 454Q147
452 118 426T88 348Q88 318 97 298T125 267T158 253T193 247Q239 249 267 276T296 354Z" />
<glyph unicode="&#xa8;" glyph-name="dieresis" horiz-adv-x="280" d="M88 694V581H53V694H88ZM223 694V581H188V694H223Z" />
<glyph unicode="&#xa9;" glyph-name="copyright" horiz-adv-x="420" d="M54 143V550Q54 625 97 664T207 703T317 664T360 550V143Q360 68 317 29T207 -10T97 29T54 143ZM325 143V550Q325 610 293 639T207 669T122 640T89 550V143Q89 84 121 55T207 25T292 54T325
143ZM296 183V145Q251 130 213 130Q171 130 145 154T118 225V469Q118 516 144 540T213 564Q253 564 296 548V511Q240 529 213 529T170 514T153 469V225Q153 195 169 180T213 165Q245 165 296 183Z" />
<glyph unicode="&#xab;" glyph-name="guillemotleft" horiz-adv-x="451" d="M49 347L232 530L257 505L99 347L257 189L232 164L49 347ZM189 347L372 530L397 505L239 347L397 189L372 164L189 347Z" />
<glyph unicode="&#xac;" glyph-name="logicalnot" horiz-adv-x="370" d="M53 364H311V218H276V329H53V364Z" />
<glyph unicode="&#xae;" glyph-name="registered" horiz-adv-x="420" d="M54 143V550Q54 625 97 664T207 703T317 664T360 550V143Q360 68 317 29T207 -10T97 29T54 143ZM325 143V550Q325 610 293 639T207 669T122 640T89 550V143Q89 84 121 55T207 25T292 54T325
143ZM152 136H117V558H214V557Q253 553 277 529T301 463V382Q301 310 242 293L316 136H280L209 287H207H152V136ZM266 463Q266 493 247 508T198 523H152V322H205Q266 324 266 382V463Z" />
<glyph unicode="&#xaf;" glyph-name="overscore" horiz-adv-x="380" d="M53 655H321V620H53V655Z" />
<glyph unicode="1;" glyph-name="plusminus" horiz-adv-x="370" d="M165 476H200V364H311V329H200V218H165V329H53V364H165V476ZM311 169V134H53V169H311Z" />
<glyph unicode="4;" glyph-name="acute" horiz-adv-x="296" d="M49 591L220 711L243 682L71 562L49 591Z" />
<glyph unicode="8;" glyph-name="cedilla" horiz-adv-x="253" d="M154 16L135 -37Q197 -43 197 -109Q197 -146 177 -164T123 -183Q92 -183 52 -169V-131Q99 -148 123 -148Q162 -148 162 -109Q162 -72 121 -72H85L118 16H154Z" />
<glyph unicode="b;" glyph-name="guillemotright" horiz-adv-x="451" d="M49 505L74 530L257 347L74 164L49 189L207 347L49 505ZM189 505L214 530L397 347L214 164L189 189L347 347L189 505Z" />
<glyph unicode="f;" glyph-name="questiondown" horiz-adv-x="400" d="M207 -203Q139 -203 97 -164T54 -50V17Q54 61 65 91T96 137T129 158T160 169L169 171Q179 173 189 178T214 196T238 232T247 289V345H282V289Q282 247 270 216T238 169T204 147T175 137Q173
136 171 136L161 133Q150 130 143 128T125 117T106 98T94 65T89 17V-50Q89 -110 121 -139T207 -169Q267 -169 340 -141V-179Q274 -203 207 -203ZM247 407V500H282V407H247Z" />
<glyph unicode="0;" glyph-name="Agrave" horiz-adv-x="420" d="M392 0H354L315 166H99L59 0H22L190 700H225L392 0ZM208 620L107 201H306L208 620ZM93 911L265 791L242 762L71 882L93 911Z" />
<glyph unicode="1;" glyph-name="Aacute" horiz-adv-x="420" d="M392 0H354L315 166H99L59 0H22L190 700H225L392 0ZM208 620L107 201H306L208 620ZM151 791L322 911L345 882L173 762L151 791Z" />
<glyph unicode="2;" glyph-name="Acircumflex" horiz-adv-x="420" d="M392 0H354L315 166H99L59 0H22L190 700H225L392 0ZM208 620L107 201H306L208 620ZM207 858L111 761L84 787L207 910L331 787L304 761L207 858Z" />
<glyph unicode="3;" glyph-name="Atilde" horiz-adv-x="420" d="M392 0H354L315 166H99L59 0H22L190 700H225L392 0ZM208 620L107 201H306L208 620ZM166 864Q147 864 141 847T134 781H99Q99 846 115 872T166 899Q178 899 186 895T201 882T210 866T218 847Q232
811 249 811Q269 811 275 828T281 894H316Q316 830 300 804T249 777Q230 777 217 787T199 806T187 834Q177 864 166 864Z" />
<glyph unicode="4;" glyph-name="Adieresis" horiz-adv-x="420" d="M392 0H354L315 166H99L59 0H22L190 700H225L392 0ZM208 620L107 201H306L208 620ZM158 894V781H123V894H158ZM293 894V781H258V894H293Z" />
<glyph unicode="5;" glyph-name="Aring" horiz-adv-x="420" d="M392 0H354L315 166H99L59 0H22L190 700H225L392 0ZM208 620L107 201H306L208 620ZM133 838Q133 869 155 891T208 913T261 891T284 838Q284 806 262 784T208 762Q177 762 155 784T133 838ZM167
838Q167 820 179 809T208 797T237 808T249 838Q249 855 237 866T208 878T179 867T167 838Z" />
<glyph unicode="6;" glyph-name="AE" horiz-adv-x="489" d="M450 0H238V166H99L59 0H22L190 700H450V665H274V368H420V332H274V35H450V0ZM219 665L107 201H238V665H219Z" />
<glyph unicode="7;" glyph-name="Ccedilla" horiz-adv-x="380" d="M208 710Q273 710 343 685V647Q268 675 208 675Q154 675 121 645T88 555V145Q88 85 121 55T208 25Q268 25 343 53V15Q286 -6 229 -9L219 -37Q282 -43 282 -109Q282 -147 262 -166T208 -185T136
-170V-132Q186 -150 208 -150Q225 -150 236 -140T247 -109Q247 -72 206 -72H170L193 -9Q131 -5 92 34T53 145V555Q53 631 96 670T208 710Z" />
<glyph unicode="8;" glyph-name="Egrave" horiz-adv-x="350" d="M323 0H53V700H323V665H88V368H294V332H88V35H323V0ZM98 911L270 791L247 762L76 882L98 911Z" />
<glyph unicode="9;" glyph-name="Eacute" horiz-adv-x="350" d="M323 0H53V700H323V665H88V368H294V332H88V35H323V0ZM76 791L247 911L270 882L98 762L76 791Z" />
<glyph unicode="a;" glyph-name="Ecircumflex" horiz-adv-x="350" d="M323 0H53V700H323V665H88V368H294V332H88V35H323V0ZM172 858L76 761L49 787L172 910L296 787L269 761L172 858Z" />
<glyph unicode="b;" glyph-name="Edieresis" horiz-adv-x="350" d="M323 0H53V700H323V665H88V368H294V332H88V35H323V0ZM123 894V781H88V894H123ZM258 894V781H223V894H258Z" />
<glyph unicode="c;" glyph-name="Igrave" horiz-adv-x="140" d="M87 0H52V700H87V0ZM-7 911L165 791L142 762L-29 882L-7 911Z" />
<glyph unicode="d;" glyph-name="Iacute" horiz-adv-x="140" d="M87 0H52V700H87V0ZM-29 791L142 911L165 882L-7 762L-29 791Z" />
<glyph unicode="e;" glyph-name="Icircumflex" horiz-adv-x="140" d="M87 0H52V700H87V0ZM67 858L-29 761L-56 787L67 910L191 787L164 761L67 858Z" />
<glyph unicode="f;" glyph-name="Idieresis" horiz-adv-x="140" d="M87 0H52V700H87V0ZM18 894V781H-17V894H18ZM153 894V781H118V894H153Z" />
<glyph unicode="&#xd0;" glyph-name="Eth" horiz-adv-x="454" d="M241 0H96V332H24V368H96V700H241Q309 700 352 661T395 546V154Q395 79 352 40T241 0ZM284 368V332H132V35H241Q295 35 327 64T360 154V546Q360 606 328 635T241 665H132V368H284Z" />
<glyph unicode="&#xd1;" glyph-name="Ntilde" horiz-adv-x="410" d="M352 0H320L88 592V0H53V700H86L317 108V700H352V0ZM161 864Q142 864 136 847T129 781H94Q94 846 110 872T161 899Q173 899 181 895T196 882T205 866T213 847Q227 811 244 811Q264 811 270 828T276
894H311Q311 830 295 804T244 777Q225 777 212 787T194 806T182 834Q172 864 161 864Z" />
<glyph unicode="&#xd2;" glyph-name="Ograve" horiz-adv-x="420" d="M53 145V555Q53 631 96 670T208 710T319 671T362 555V145Q362 69 319 30T208 -10T97 29T53 145ZM327 145V555Q327 615 294 645T208 675Q154 675 121 645T88 555V145Q88 85 121 55T208 25Q261
25 294 55T327 145ZM93 911L265 791L242 762L71 882L93 911Z" />
<glyph unicode="&#xd3;" glyph-name="Oacute" horiz-adv-x="420" d="M53 145V555Q53 631 96 670T208 710T319 671T362 555V145Q362 69 319 30T208 -10T97 29T53 145ZM327 145V555Q327 615 294 645T208 675Q154 675 121 645T88 555V145Q88 85 121 55T208 25Q261
25 294 55T327 145ZM151 791L322 911L345 882L173 762L151 791Z" />
<glyph unicode="&#xd4;" glyph-name="Ocircumflex" horiz-adv-x="420" d="M53 145V555Q53 631 96 670T208 710T319 671T362 555V145Q362 69 319 30T208 -10T97 29T53 145ZM327 145V555Q327 615 294 645T208 675Q154 675 121 645T88 555V145Q88 85 121 55T208 25Q261
25 294 55T327 145ZM207 858L111 761L84 787L207 910L331 787L304 761L207 858Z" />
<glyph unicode="&#xd5;" glyph-name="Otilde" horiz-adv-x="420" d="M53 145V555Q53 631 96 670T208 710T319 671T362 555V145Q362 69 319 30T208 -10T97 29T53 145ZM327 145V555Q327 615 294 645T208 675Q154 675 121 645T88 555V145Q88 85 121 55T208 25Q261
25 294 55T327 145ZM166 864Q147 864 141 847T134 781H99Q99 846 115 872T166 899Q178 899 186 895T201 882T210 866T218 847Q232 811 249 811Q269 811 275 828T281 894H316Q316 830 300 804T249 777Q230 777 217 787T199 806T187 834Q177 864 166 864Z" />
<glyph unicode="&#xd6;" glyph-name="Odieresis" horiz-adv-x="420" d="M53 145V555Q53 631 96 670T208 710T319 671T362 555V145Q362 69 319 30T208 -10T97 29T53 145ZM327 145V555Q327 615 294 645T208 675Q154 675 121 645T88 555V145Q88 85 121 55T208 25Q261
25 294 55T327 145ZM158 894V781H123V894H158ZM293 894V781H258V894H293Z" />
<glyph unicode="&#xd7;" glyph-name="multiply" horiz-adv-x="310" d="M49 425L74 451L152 371L231 451L256 425L177 346L256 268L231 243L152 321L74 243L49 268L127 346L49 425Z" />
<glyph unicode="&#xd8;" glyph-name="Oslash" horiz-adv-x="420" d="M57 -12L28 5L63 81Q53 111 53 145V555Q53 631 96 670T208 710Q290 710 331 657L357 712L388 696L352 618Q362 588 362 555V145Q362 69 319 30T208 -10Q125 -10 83 44L57 -12ZM88 145V134L313
618Q284 675 208 675Q154 675 121 645T88 555V145ZM327 145V555Q327 556 327 559T326 564L101 82Q130 25 208 25Q261 25 294 55T327 145Z" />
<glyph unicode="&#xd9;" glyph-name="Ugrave" horiz-adv-x="410" d="M317 145V700H352V145Q352 68 312 29T203 -10T94 29T53 145V700H88V145Q88 85 119 55T203 25T286 55T317 145ZM98 911L270 791L247 762L76 882L98 911Z" />
<glyph unicode="&#xda;" glyph-name="Uacute" horiz-adv-x="410" d="M317 145V700H352V145Q352 68 312 29T203 -10T94 29T53 145V700H88V145Q88 85 119 55T203 25T286 55T317 145ZM146 791L317 911L340 882L168 762L146 791Z" />
<glyph unicode="&#xdb;" glyph-name="Ucircumflex" horiz-adv-x="410" d="M317 145V700H352V145Q352 68 312 29T203 -10T94 29T53 145V700H88V145Q88 85 119 55T203 25T286 55T317 145ZM202 858L106 761L79 787L202 910L326 787L299 761L202 858Z" />
<glyph unicode="&#xdc;" glyph-name="Udieresis" horiz-adv-x="410" d="M317 145V700H352V145Q352 68 312 29T203 -10T94 29T53 145V700H88V145Q88 85 119 55T203 25T286 55T317 145ZM153 894V781H118V894H153ZM288 894V781H253V894H288Z" />
<glyph unicode="&#xdd;" glyph-name="Yacute" horiz-adv-x="420" d="M225 0H190V253L21 700H58L208 305L355 700H393L225 251V0ZM111 791L282 911L305 882L133 762L111 791Z" />
<glyph unicode="&#xde;" glyph-name="Thorn" horiz-adv-x="370" d="M88 0H53V700H88V573H178Q246 573 289 534T333 418V282Q333 243 322 215T296 171T258 145T218 132T179 127H88V0ZM177 162Q195 164 206 166T237 175T268 194T289 228T298 282V418Q298 479 265
508T178 538H88V162H177Z" />
<glyph unicode="&#xdf;" glyph-name="germandbls" horiz-adv-x="420" d="M54 0V599Q54 674 97 713T207 752T317 713T360 599V531Q360 428 282 395Q360 360 360 260V153Q360 78 315 39T199 0V35Q255 35 290 64T325 153V260Q325 295 314 319T284 354T248 371T209
378Q206 377 199 377V414Q202 413 209 413Q231 415 247 419T283 435T314 471T325 531V599Q325 658 293 687T207 717T122 688T89 599V0H54Z" />
<glyph unicode="&#xe0;" glyph-name="agrave" horiz-adv-x="390" d="M53 129H54V168Q54 237 92 271T192 306H296V371Q296 422 267 448T194 475Q148 475 73 448V485Q143 510 195 510Q254 510 292 475T331 371V0H296V14Q226 -10 192 -10Q131 -10 92 25T53 129ZM192
25Q239 25 296 42V271H192Q146 271 117 245T88 168V129Q88 77 117 51T192 25ZM118 711L290 591L267 562L96 682L118 711Z" />
<glyph unicode="&#xe1;" glyph-name="aacute" horiz-adv-x="390" d="M53 129H54V168Q54 237 92 271T192 306H296V371Q296 422 267 448T194 475Q148 475 73 448V485Q143 510 195 510Q254 510 292 475T331 371V0H296V14Q226 -10 192 -10Q131 -10 92 25T53 129ZM192
25Q239 25 296 42V271H192Q146 271 117 245T88 168V129Q88 77 117 51T192 25ZM96 591L267 711L290 682L118 562L96 591Z" />
<glyph unicode="&#xe2;" glyph-name="acircumflex" horiz-adv-x="390" d="M53 129H54V168Q54 237 92 271T192 306H296V371Q296 422 267 448T194 475Q148 475 73 448V485Q143 510 195 510Q254 510 292 475T331 371V0H296V14Q226 -10 192 -10Q131 -10 92 25T53 129ZM192
25Q239 25 296 42V271H192Q146 271 117 245T88 168V129Q88 77 117 51T192 25ZM192 658L96 561L69 587L192 710L316 587L289 561L192 658Z" />
<glyph unicode="&#xe3;" glyph-name="atilde" horiz-adv-x="390" d="M53 129H54V168Q54 237 92 271T192 306H296V371Q296 422 267 448T194 475Q148 475 73 448V485Q143 510 195 510Q254 510 292 475T331 371V0H296V14Q226 -10 192 -10Q131 -10 92 25T53 129ZM192
25Q239 25 296 42V271H192Q146 271 117 245T88 168V129Q88 77 117 51T192 25ZM151 664Q132 664 126 647T119 581H84Q84 646 100 672T151 699Q163 699 171 695T186 682T195 666T203 647Q217 611 234 611Q254 611 260 628T266 694H301Q301 630 285 604T234 577Q215
577 202 587T184 606T172 634Q162 664 151 664Z" />
<glyph unicode="&#xe4;" glyph-name="adieresis" horiz-adv-x="390" d="M53 129H54V168Q54 237 92 271T192 306H296V371Q296 422 267 448T194 475Q148 475 73 448V485Q143 510 195 510Q254 510 292 475T331 371V0H296V14Q226 -10 192 -10Q131 -10 92 25T53 129ZM192
25Q239 25 296 42V271H192Q146 271 117 245T88 168V129Q88 77 117 51T192 25ZM143 694V581H108V694H143ZM278 694V581H243V694H278Z" />
<glyph unicode="&#xe5;" glyph-name="aring" horiz-adv-x="390" d="M53 129H54V168Q54 237 92 271T192 306H296V371Q296 422 267 448T194 475Q148 475 73 448V485Q143 510 195 510Q254 510 292 475T331 371V0H296V14Q226 -10 192 -10Q131 -10 92 25T53 129ZM192
25Q239 25 296 42V271H192Q146 271 117 245T88 168V129Q88 77 117 51T192 25ZM118 638Q118 669 140 691T193 713T246 691T269 638Q269 606 247 584T193 562T140 584T118 638ZM152 638Q152 620 164 609T193 597T222 608T234 638Q234 655 222 666T193 678T164 667T152
638Z" />
<glyph unicode="&#xe6;" glyph-name="ae" horiz-adv-x="640" d="M436 25Q480 25 556 52V15Q486 -10 436 -10Q339 -10 313 72Q287 -10 194 -10Q133 -10 95 25T56 129V168Q56 237 94 271T194 306H298V371Q298 423 269 449T194 475Q150 475 75 448V485Q144 510 194
510Q288 510 315 433Q343 510 436 510Q497 510 536 475T575 371V233H333V129Q333 77 361 51T436 25ZM194 25Q238 25 267 52T298 131V271H194Q148 271 119 245T90 168V129Q90 77 119 51T194 25ZM540 267V371Q540 423 511 449T436 475T362 449T333 371V267H540Z"
/>
<glyph unicode="&#xe7;" glyph-name="ccedilla" horiz-adv-x="370" d="M192 475Q146 475 117 449T88 371V129Q88 77 117 51T192 25Q236 25 311 52V15Q254 -6 201 -10L192 -37Q254 -43 254 -109Q254 -146 234 -164T180 -183Q149 -183 110 -169V-131Q155 -148 180
-148Q219 -148 219 -109Q219 -72 178 -72H143L167 -8Q115 -2 84 32T53 129V371Q53 440 92 475T192 510Q242 510 311 485V448Q236 475 192 475Z" />
<glyph unicode="&#xe8;" glyph-name="egrave" horiz-adv-x="390" d="M296 267V371Q296 423 267 449T192 475T117 449T88 371V267H296ZM192 25Q236 25 311 52V15Q242 -10 192 -10Q131 -10 93 25T54 129V371Q54 440 92 475T192 510T292 475T331 371V233H88V129Q88
77 117 51T192 25ZM98 711L270 591L247 562L76 682L98 711Z" />
<glyph unicode="&#xe9;" glyph-name="eacute" horiz-adv-x="390" d="M296 267V371Q296 423 267 449T192 475T117 449T88 371V267H296ZM192 25Q236 25 311 52V15Q242 -10 192 -10Q131 -10 93 25T54 129V371Q54 440 92 475T192 510T292 475T331 371V233H88V129Q88
77 117 51T192 25ZM116 591L287 711L310 682L138 562L116 591Z" />
<glyph unicode="&#xea;" glyph-name="ecircumflex" horiz-adv-x="390" d="M296 267V371Q296 423 267 449T192 475T117 449T88 371V267H296ZM192 25Q236 25 311 52V15Q242 -10 192 -10Q131 -10 93 25T54 129V371Q54 440 92 475T192 510T292 475T331 371V233H88V129Q88
77 117 51T192 25ZM192 658L96 561L69 587L192 710L316 587L289 561L192 658Z" />
<glyph unicode="&#xeb;" glyph-name="edieresis" horiz-adv-x="390" d="M296 267V371Q296 423 267 449T192 475T117 449T88 371V267H296ZM192 25Q236 25 311 52V15Q242 -10 192 -10Q131 -10 93 25T54 129V371Q54 440 92 475T192 510T292 475T331 371V233H88V129Q88
77 117 51T192 25ZM143 694V581H108V694H143ZM278 694V581H243V694H278Z" />
<glyph unicode="&#xec;" glyph-name="igrave" horiz-adv-x="140" d="M87 500V0H52V500H87ZM-7 711L165 591L142 562L-29 682L-7 711Z" />
<glyph unicode="&#xed;" glyph-name="iacute" horiz-adv-x="140" d="M87 500V0H52V500H87ZM-29 591L142 711L165 682L-7 562L-29 591Z" />
<glyph unicode="&#xee;" glyph-name="icircumflex" horiz-adv-x="140" d="M87 500V0H52V500H87ZM67 658L-29 561L-56 587L67 710L191 587L164 561L67 658Z" />
<glyph unicode="&#xef;" glyph-name="idieresis" horiz-adv-x="140" d="M87 500V0H52V500H87ZM18 694V581H-17V694H18ZM153 694V581H118V694H153Z" />
<glyph unicode="&#xf0;" glyph-name="eth" horiz-adv-x="390" d="M370 697L382 663L277 625L290 594Q331 495 331 386V121H330Q326 56 288 23T193 -10Q132 -10 93 25T54 129V371Q54 440 93 475T193 510Q224 510 293 484Q282 525 260 578L245 613L139 575L127 609L232
647L194 742H231L264 658L370 697ZM296 401H304Q302 438 299 457Q237 475 193 475Q146 475 118 449T89 371V129Q89 77 117 51T193 25Q239 25 267 51T296 129V401Z" />
<glyph unicode="&#xf1;" glyph-name="ntilde" horiz-adv-x="390" d="M192 510Q253 510 292 475T331 371V0H296V371Q296 423 267 449T192 475Q144 475 88 457V0H54V500H88V483Q155 510 192 510ZM154 664Q135 664 129 647T122 581H87Q87 646 103 672T154 699Q166
699 174 695T189 682T198 666T206 647Q220 611 237 611Q257 611 263 628T269 694H304Q304 630 288 604T237 577Q218 577 205 587T187 606T175 634Q165 664 154 664Z" />
<glyph unicode="&#xf2;" glyph-name="ograve" horiz-adv-x="390" d="M331 371V129Q331 60 292 25T192 -10T93 25T54 129V371Q54 440 92 475T192 510T292 475T331 371ZM296 129V371Q296 423 267 449T192 475T117 449T88 371V129Q88 77 117 51T192 25T267 51T296
129ZM88 711L260 591L237 562L66 682L88 711Z" />
<glyph unicode="&#xf3;" glyph-name="oacute" horiz-adv-x="390" d="M331 371V129Q331 60 292 25T192 -10T93 25T54 129V371Q54 440 92 475T192 510T292 475T331 371ZM296 129V371Q296 423 267 449T192 475T117 449T88 371V129Q88 77 117 51T192 25T267 51T296
129ZM136 591L307 711L330 682L158 562L136 591Z" />
<glyph unicode="&#xf4;" glyph-name="ocircumflex" horiz-adv-x="390" d="M331 371V129Q331 60 292 25T192 -10T93 25T54 129V371Q54 440 92 475T192 510T292 475T331 371ZM296 129V371Q296 423 267 449T192 475T117 449T88 371V129Q88 77 117 51T192 25T267 51T296
129ZM192 658L96 561L69 587L192 710L316 587L289 561L192 658Z" />
<glyph unicode="&#xf5;" glyph-name="otilde" horiz-adv-x="390" d="M331 371V129Q331 60 292 25T192 -10T93 25T54 129V371Q54 440 92 475T192 510T292 475T331 371ZM296 129V371Q296 423 267 449T192 475T117 449T88 371V129Q88 77 117 51T192 25T267 51T296
129ZM151 664Q132 664 126 647T119 581H84Q84 646 100 672T151 699Q163 699 171 695T186 682T195 666T203 647Q217 611 234 611Q254 611 260 628T266 694H301Q301 630 285 604T234 577Q215 577 202 587T184 606T172 634Q162 664 151 664Z" />
<glyph unicode="&#xf6;" glyph-name="odieresis" horiz-adv-x="390" d="M331 371V129Q331 60 292 25T192 -10T93 25T54 129V371Q54 440 92 475T192 510T292 475T331 371ZM296 129V371Q296 423 267 449T192 475T117 449T88 371V129Q88 77 117 51T192 25T267 51T296
129ZM143 694V581H108V694H143ZM278 694V581H243V694H278Z" />
<glyph unicode="&#xf7;" glyph-name="divide" horiz-adv-x="370" d="M311 364V329H53V364H311ZM165 476H200V412H165V476ZM165 282H200V218H165V282Z" />
<glyph unicode="&#xf8;" glyph-name="oslash" horiz-adv-x="390" d="M43 -12L13 5L60 79Q54 100 54 129V371Q54 440 92 475T192 510Q268 510 306 459L340 511L372 495L324 421Q331 400 331 371V129Q331 60 292 25T192 -10Q114 -10 78 42L43 -12ZM88 129V122L284
425Q259 475 192 475Q146 475 117 449T88 371V129ZM296 129V371V377L99 75Q124 25 192 25Q238 25 267 51T296 129Z" />
<glyph unicode="&#xf9;" glyph-name="ugrave" horiz-adv-x="390" d="M331 0H296V16Q230 -10 192 -10Q131 -10 93 25T54 129V500H88V129Q88 77 117 51T192 25Q239 25 296 42V500H331V0ZM98 711L270 591L247 562L76 682L98 711Z" />
<glyph unicode="&#xfa;" glyph-name="uacute" horiz-adv-x="390" d="M331 0H296V16Q230 -10 192 -10Q131 -10 93 25T54 129V500H88V129Q88 77 117 51T192 25Q239 25 296 42V500H331V0ZM126 591L297 711L320 682L148 562L126 591Z" />
<glyph unicode="&#xfb;" glyph-name="ucircumflex" horiz-adv-x="390" d="M331 0H296V16Q230 -10 192 -10Q131 -10 93 25T54 129V500H88V129Q88 77 117 51T192 25Q239 25 296 42V500H331V0ZM192 658L96 561L69 587L192 710L316 587L289 561L192 658Z" />
<glyph unicode="&#xfc;" glyph-name="udieresis" horiz-adv-x="390" d="M331 0H296V16Q230 -10 192 -10Q131 -10 93 25T54 129V500H88V129Q88 77 117 51T192 25Q239 25 296 42V500H331V0ZM143 694V581H108V694H143ZM278 694V581H243V694H278Z" />
<glyph unicode="&#xfd;" glyph-name="yacute" horiz-adv-x="390" d="M192 -217Q238 -217 267 -191T296 -113V16Q230 -10 192 -10Q131 -10 93 25T54 129V500H88V129Q88 77 117 51T192 25Q239 25 296 42V500H331V-113Q331 -182 292 -217T192 -252Q130 -252 58 -228V-190Q134
-217 192 -217ZM96 591L267 711L290 682L118 562L96 591Z" />
<glyph unicode="&#xfe;" glyph-name="thorn" horiz-adv-x="390" d="M54 -242V742H88V483Q155 510 192 510Q253 510 292 475T331 371V129Q331 60 292 25T192 -10Q152 -10 88 16V-242H54ZM192 25Q238 25 267 51T296 129V371Q296 423 267 449T192 475Q144 475 88
457V42Q145 25 192 25Z" />
<glyph unicode="&#xff;" glyph-name="ydieresis" horiz-adv-x="390" d="M192 -217Q238 -217 267 -191T296 -113V16Q230 -10 192 -10Q131 -10 93 25T54 129V500H88V129Q88 77 117 51T192 25Q239 25 296 42V500H331V-113Q331 -182 292 -217T192 -252Q130 -252 58
-228V-190Q134 -217 192 -217ZM143 694V581H108V694H143ZM278 694V581H243V694H278Z" />
</font>
</defs>
</svg>
